<svg xmlns="http://www.w3.org/2000/svg" version="1.1" xmlns:xlink="http://www.w3.org/1999/xlink" xmlns:svgjs="http://svgjs.dev/svgjs" width="1000" height="1000" viewBox="0 0 1000 1000"><rect width="1000" height="1000" fill="#ffffff"></rect><g transform="matrix(0.7,0,0,0.7,149.57577306345263,418.0207541588483)"><svg viewBox="0 0 396 93" data-background-color="#ffffff" preserveAspectRatio="xMidYMid meet" height="234" width="1000" xmlns="http://www.w3.org/2000/svg" xmlns:xlink="http://www.w3.org/1999/xlink"><g id="tight-bounds" transform="matrix(1,0,0,1,0.23999123838967762,0.044993059994567375)"><svg viewBox="0 0 395.52 92.91000989772351" height="92.91000989772351" width="395.52"><g><svg viewBox="0 0 395.52 92.91000989772351" height="92.91000989772351" width="395.52"><g><svg viewBox="0 0 395.52 92.91000989772351" height="92.91000989772351" width="395.52"><g id="textblocktransform"><svg viewBox="0 0 395.52 92.91000989772351" height="92.91000989772351" width="395.52" id="textblock"><g><svg viewBox="0 0 395.52 92.91000989772351" height="92.91000989772351" width="395.52"><g transform="matrix(1,0,0,1,0,0)"><svg width="395.52" viewBox="0.5 -35 151.5399932861328 35.599998474121094" height="92.91000989772351" data-palette-color="#ed1703"><path d="M38.45 0L26.75 0 25.3-4.85 13.25-4.85 11.8 0 0.5 0 13.05-34.4 25.9-34.4 38.45 0ZM19.2-24.8L15.55-12.55 23-12.55 19.4-24.8 19.2-24.8ZM53.65-19.7L65.9-34.4 79.6-34.4 67.25-20.25 79.85 0 66.8 0 59.65-12.6 53.65-7.7 53.65 0 42.6 0 42.6-34.4 53.65-34.4 53.65-19.7ZM98.95-35Q106.6-35 111.05-31.18 115.5-27.35 115.5-20.25L115.5-20.25 104.95-20.25Q104.95-23.25 103.37-25 101.8-26.75 98.9-26.75L98.9-26.75Q95.55-26.75 93.97-24.65 92.4-22.55 92.4-18.8L92.4-18.8 92.4-15.6Q92.4-11.9 93.97-9.78 95.55-7.65 98.8-7.65L98.8-7.65Q102-7.65 103.65-9.3 105.3-10.95 105.3-13.95L105.3-13.95 115.5-13.95Q115.5-6.9 111.17-3.15 106.85 0.6 98.95 0.6L98.95 0.6Q90.15 0.6 85.62-3.9 81.1-8.4 81.1-17.2L81.1-17.2Q81.1-26 85.62-30.5 90.15-35 98.95-35L98.95-35ZM135.89-35Q142.49-35 146.74-32.33 150.99-29.65 151.09-24.4L151.09-24.4 151.09-23.8 140.74-23.8 140.74-24Q140.74-25.5 139.64-26.5 138.54-27.5 136.29-27.5L136.29-27.5Q134.09-27.5 132.92-26.85 131.74-26.2 131.74-25.25L131.74-25.25Q131.74-23.9 133.34-23.25 134.94-22.6 138.49-21.9L138.49-21.9Q142.64-21.05 145.32-20.13 147.99-19.2 149.99-17.1 151.99-15 152.04-11.4L152.04-11.4Q152.04-5.3 147.92-2.35 143.79 0.6 136.89 0.6L136.89 0.6Q128.84 0.6 124.37-2.1 119.89-4.8 119.89-11.65L119.89-11.65 130.34-11.65Q130.34-9.05 131.69-8.18 133.04-7.3 135.89-7.3L135.89-7.3Q137.99-7.3 139.37-7.75 140.74-8.2 140.74-9.6L140.74-9.6Q140.74-10.85 139.22-11.48 137.69-12.1 134.24-12.8L134.24-12.8Q130.04-13.7 127.29-14.68 124.54-15.65 122.49-17.9 120.44-20.15 120.44-24L120.44-24Q120.44-29.65 124.82-32.33 129.19-35 135.89-35L135.89-35Z" opacity="1" transform="matrix(1,0,0,1,0,0)" fill="#ed1703" class="undefined-text-0" data-fill-palette-color="primary" id="text-0"></path></svg></g></svg></g></svg></g></svg></g></svg></g><defs></defs></svg><rect width="395.52" height="92.91000989772351" fill="none" stroke="none" visibility="hidden"></rect></g></svg></g></svg>